<svg xmlns="http://www.w3.org/2000/svg" xmlns:xlink="http://www.w3.org/1999/xlink" width="500" zoomAndPan="magnify" viewBox="0 0 375 374.999991" height="500" preserveAspectRatio="xMidYMid meet" version="1.0"><defs><clipPath id="2646a1cad5"><path d="M 63 88 L 312 88 L 312 337.5 L 63 337.5 Z M 63 88 " clip-rule="nonzero"/></clipPath><clipPath id="37c0067042"><path d="M 126 17.429688 L 249 17.429688 L 249 130 L 126 130 Z M 126 17.429688 " clip-rule="nonzero"/></clipPath><clipPath id="c46f729b20"><path d="M 162 125.917969 L 202 125.917969 L 202 164 L 162 164 Z M 162 125.917969 " clip-rule="nonzero"/></clipPath><clipPath id="302511bb3f"><path d="M 97.429688 143 L 128 143 L 128 173 L 97.429688 173 Z M 97.429688 143 " clip-rule="nonzero"/></clipPath><clipPath id="e945ddd7a8"><path d="M 234 251 L 277.46875 251 L 277.46875 295 L 234 295 Z M 234 251 " clip-rule="nonzero"/></clipPath></defs><g clip-path="url(#2646a1cad5)"><path fill="#ffffff" d="M 234.828125 337.515625 L 140.167969 337.515625 C 110.761719 337.515625 84.300781 321.183594 71.085938 294.886719 C 64.347656 281.441406 62.050781 265.699219 64.457031 249.363281 L 88.117188 88.378906 L 286.875 88.378906 L 310.535156 249.363281 C 312.9375 265.703125 310.640625 281.445312 303.890625 294.886719 C 290.695312 321.183594 264.230469 337.515625 234.828125 337.515625 Z M 100.65625 102.902344 L 78.820312 251.472656 C 76.863281 264.84375 78.679688 277.605469 84.074219 288.375 C 85.367188 290.96875 86.832031 293.460938 88.46875 295.851562 C 90.109375 298.242188 91.902344 300.507812 93.855469 302.648438 C 95.8125 304.789062 97.902344 306.785156 100.132812 308.632812 C 102.367188 310.480469 104.714844 312.167969 107.179688 313.691406 C 109.648438 315.210938 112.207031 316.554688 114.859375 317.722656 C 117.511719 318.886719 120.234375 319.863281 123.023438 320.652344 C 125.8125 321.4375 128.640625 322.027344 131.511719 322.421875 C 134.382812 322.8125 137.269531 323.003906 140.167969 322.996094 L 234.828125 322.996094 C 237.726562 323.003906 240.609375 322.8125 243.480469 322.421875 C 246.351562 322.027344 249.183594 321.4375 251.972656 320.652344 C 254.761719 319.863281 257.480469 318.886719 260.132812 317.722656 C 262.785156 316.554688 265.347656 315.210938 267.8125 313.691406 C 270.277344 312.167969 272.625 310.484375 274.859375 308.632812 C 277.089844 306.785156 279.179688 304.789062 281.136719 302.648438 C 283.089844 300.507812 284.882812 298.242188 286.523438 295.851562 C 288.160156 293.460938 289.625 290.96875 290.914062 288.375 C 296.320312 277.609375 298.136719 264.851562 296.171875 251.472656 L 274.332031 102.902344 Z M 100.65625 102.902344 " fill-opacity="1" fill-rule="nonzero"/></g><g clip-path="url(#37c0067042)"><path fill="#ffffff" d="M 241.015625 129.535156 C 240.535156 129.535156 240.0625 129.488281 239.59375 129.394531 C 239.128906 129.300781 238.671875 129.164062 238.230469 128.980469 C 237.789062 128.796875 237.371094 128.574219 236.972656 128.308594 C 236.578125 128.042969 236.210938 127.742188 235.871094 127.402344 C 235.535156 127.066406 235.234375 126.699219 234.96875 126.300781 C 234.703125 125.90625 234.480469 125.484375 234.296875 125.042969 C 234.113281 124.601562 233.976562 124.148438 233.882812 123.679688 C 233.789062 123.210938 233.742188 122.738281 233.742188 122.261719 L 233.742188 78.207031 C 233.742188 52.699219 212.992188 31.949219 187.484375 31.949219 C 161.976562 31.949219 141.238281 52.699219 141.238281 78.207031 L 141.238281 122.28125 C 141.214844 122.742188 141.144531 123.195312 141.035156 123.640625 C 140.925781 124.089844 140.773438 124.523438 140.578125 124.941406 C 140.382812 125.359375 140.152344 125.753906 139.882812 126.128906 C 139.617188 126.503906 139.3125 126.847656 138.980469 127.167969 C 138.644531 127.484375 138.285156 127.765625 137.894531 128.015625 C 137.507812 128.261719 137.097656 128.472656 136.671875 128.640625 C 136.242188 128.8125 135.800781 128.941406 135.347656 129.027344 C 134.894531 129.117188 134.4375 129.160156 133.976562 129.160156 C 133.515625 129.160156 133.0625 129.117188 132.609375 129.027344 C 132.15625 128.941406 131.714844 128.8125 131.285156 128.640625 C 130.859375 128.472656 130.449219 128.261719 130.0625 128.015625 C 129.671875 127.765625 129.3125 127.484375 128.976562 127.167969 C 128.644531 126.847656 128.339844 126.503906 128.070312 126.128906 C 127.804688 125.753906 127.570312 125.359375 127.378906 124.941406 C 127.183594 124.523438 127.03125 124.089844 126.921875 123.640625 C 126.808594 123.195312 126.742188 122.742188 126.71875 122.28125 L 126.71875 78.207031 C 126.71875 44.699219 153.984375 17.429688 187.496094 17.429688 C 221.003906 17.429688 248.273438 44.699219 248.273438 78.207031 L 248.273438 122.28125 C 248.273438 122.757812 248.226562 123.226562 248.132812 123.695312 C 248.039062 124.160156 247.898438 124.613281 247.714844 125.054688 C 247.53125 125.492188 247.308594 125.910156 247.042969 126.308594 C 246.78125 126.703125 246.476562 127.070312 246.140625 127.40625 C 245.804688 127.742188 245.4375 128.042969 245.042969 128.308594 C 244.648438 128.570312 244.230469 128.796875 243.789062 128.976562 C 243.347656 129.160156 242.894531 129.296875 242.429688 129.390625 C 241.960938 129.484375 241.492188 129.53125 241.015625 129.535156 Z M 241.015625 129.535156 " fill-opacity="1" fill-rule="nonzero"/></g><path fill="#ffffff" d="M 153.027344 169.90625 C 142.191406 169.90625 133.394531 178.691406 133.394531 189.53125 C 134.433594 215.558594 171.625 215.5625 172.65625 189.53125 C 172.65625 178.691406 163.867188 169.90625 153.027344 169.90625 Z M 155.964844 202.433594 L 149.972656 202.433594 L 149.972656 183.363281 L 144.097656 185.082031 L 144.097656 180.546875 L 155.410156 176.640625 L 155.964844 176.640625 Z M 155.964844 202.433594 " fill-opacity="1" fill-rule="nonzero"/><path fill="#ffffff" d="M 249.199219 134.007812 C 237.375 134.007812 227.789062 143.59375 227.789062 155.417969 C 228.917969 183.824219 269.492188 183.804688 270.621094 155.417969 C 270.621094 143.59375 261.027344 134.007812 249.199219 134.007812 Z M 259.3125 169.6875 C 259.3125 169.6875 255.335938 169.6875 250.964844 169.6875 C 245.617188 169.6875 239.679688 169.6875 239.679688 169.6875 L 239.679688 165.433594 C 242.214844 162.347656 252.273438 153.71875 252.066406 149.882812 C 252.125 144.230469 245.292969 145.464844 245.632812 150.59375 C 245.632812 150.59375 239.101562 150.59375 239.101562 150.59375 C 239.074219 147.183594 240.953125 143.984375 243.980469 142.386719 C 249.8125 139.410156 259.023438 141.644531 258.617188 149.300781 C 258.367188 154.234375 255.5625 156.550781 251.871094 160.46875 C 251.871094 160.46875 248.234375 164.667969 248.234375 164.667969 L 259.3125 164.667969 Z M 259.3125 169.6875 " fill-opacity="1" fill-rule="nonzero"/><path fill="#ffffff" d="M 234.683594 189.53125 C 226.664062 189.53125 220.164062 196.03125 220.164062 204.050781 C 220.828125 223.273438 248.542969 223.269531 249.207031 204.050781 C 249.207031 196.03125 242.703125 189.53125 234.683594 189.53125 Z M 239.652344 212.332031 C 236.101562 215.238281 227.609375 214.089844 227.75 208.292969 C 227.75 208.292969 232.191406 208.292969 232.191406 208.292969 C 232.152344 210.363281 235.199219 211.113281 236.507812 209.808594 C 237.535156 208.992188 237.335938 206.761719 236.484375 206.105469 C 235.660156 205.277344 233.480469 205.539062 232.339844 205.5 C 232.339844 205.5 232.339844 202.210938 232.339844 202.210938 C 234.320312 202.238281 237.023438 202.550781 236.902344 199.789062 C 237.132812 197.160156 232.617188 196.894531 232.464844 199.433594 C 232.464844 199.433594 228.050781 199.433594 228.050781 199.433594 C 228.039062 197.363281 229.316406 195.738281 231.214844 194.90625 C 233.652344 193.753906 237.664062 194.140625 239.496094 195.695312 C 242.257812 197.773438 241.808594 202.476562 238.371094 203.796875 C 242.140625 204.867188 242.691406 210.144531 239.652344 212.332031 Z M 239.652344 212.332031 " fill-opacity="1" fill-rule="nonzero"/><path fill="#ffffff" d="M 127.230469 264.304688 C 119.003906 264.304688 112.332031 270.976562 112.332031 279.207031 C 113.011719 298.933594 141.453125 298.925781 142.132812 279.207031 C 142.132812 270.976562 135.460938 264.304688 127.230469 264.304688 Z M 133.230469 285.960938 C 130.527344 291.246094 120.347656 289.621094 120.390625 283.300781 C 120.390625 283.300781 124.941406 283.300781 124.941406 283.300781 C 125.246094 286.808594 129.972656 286.335938 129.539062 282.253906 C 129.890625 279.054688 126.046875 278.183594 124.375 280.144531 C 124.375 280.144531 120.769531 279.296875 120.769531 279.296875 L 121.96875 269.28125 L 133.414062 269.28125 L 133.414062 272.777344 L 125.652344 272.777344 L 125.210938 276.695312 C 131.492188 273.640625 136.164062 280.269531 133.230469 285.960938 Z M 133.230469 285.960938 " fill-opacity="1" fill-rule="nonzero"/><g clip-path="url(#c46f729b20)"><path fill="#ffffff" d="M 182.050781 125.917969 C 171.507812 125.917969 162.960938 134.464844 162.960938 145.011719 C 163.9375 170.320312 200.167969 170.316406 201.144531 145.011719 C 201.140625 134.464844 192.597656 125.917969 182.050781 125.917969 Z M 191.09375 135.570312 L 181.71875 157.558594 L 175.578125 157.558594 L 184.96875 136.949219 L 173.011719 136.949219 L 173.011719 132.46875 L 191.09375 132.46875 Z M 191.09375 135.570312 " fill-opacity="1" fill-rule="nonzero"/></g><path fill="#ffffff" d="M 223.503906 293.660156 L 230.710938 293.660156 L 230.710938 299.769531 L 223.503906 299.769531 L 223.503906 308.035156 L 216.84375 308.035156 L 216.84375 299.769531 L 209.613281 299.769531 L 209.613281 293.660156 L 216.84375 293.660156 L 216.84375 285.628906 L 223.503906 285.628906 Z M 223.503906 293.660156 " fill-opacity="1" fill-rule="nonzero"/><path fill="#ffffff" d="M 141.15625 244.804688 L 164.894531 244.804688 L 164.894531 255.074219 L 141.15625 255.074219 Z M 141.15625 244.804688 " fill-opacity="1" fill-rule="nonzero"/><path fill="#ffffff" d="M 202.636719 188.828125 L 183.0625 188.828125 L 183.0625 183.332031 L 202.636719 183.332031 Z M 202.636719 198.105469 L 183.0625 198.105469 L 183.0625 192.609375 L 202.636719 192.609375 Z M 202.636719 198.105469 " fill-opacity="1" fill-rule="nonzero"/><path fill="#ffffff" d="M 269.851562 226.449219 L 256.117188 226.449219 L 256.117188 223.242188 L 269.851562 223.242188 Z M 260.523438 219.558594 C 260.4375 216.683594 265.503906 216.683594 265.417969 219.558594 C 265.503906 222.433594 260.4375 222.433594 260.523438 219.558594 Z M 260.523438 230.226562 C 260.4375 227.351562 265.503906 227.351562 265.417969 230.226562 C 265.503906 233.101562 260.4375 233.101562 260.523438 230.226562 Z M 260.523438 230.226562 " fill-opacity="1" fill-rule="nonzero"/><path fill="#ffffff" d="M 108.40625 193.484375 L 112.269531 189.542969 L 108.40625 185.589844 L 110.898438 183.222656 L 114.683594 187.085938 L 118.46875 183.222656 L 120.960938 185.589844 L 117.085938 189.542969 L 120.960938 193.484375 L 118.46875 195.847656 L 114.683594 191.996094 L 110.898438 195.847656 Z M 108.40625 193.484375 " fill-opacity="1" fill-rule="nonzero"/><g clip-path="url(#302511bb3f)"><path fill="#ffffff" d="M 112.40625 143.242188 C 104.21875 143.242188 97.582031 149.886719 97.582031 158.074219 C 98.257812 177.699219 126.558594 177.695312 127.230469 158.074219 C 127.230469 149.886719 120.59375 143.242188 112.40625 143.242188 Z M 119.199219 159.851562 C 119.742188 170.914062 105.074219 170.882812 105.613281 159.851562 C 105.363281 154.453125 105.714844 148.066406 112.398438 148.0625 C 119.0625 148.074219 119.457031 154.457031 119.199219 159.851562 Z M 119.199219 159.851562 " fill-opacity="1" fill-rule="nonzero"/></g><path fill="#ffffff" d="M 114.683594 155.71875 C 114.589844 157.507812 115.007812 162.253906 114.125 163.621094 C 113.46875 164.953125 111.3125 164.921875 110.6875 163.589844 C 110.316406 162.921875 110.136719 161.855469 110.136719 160.402344 C 110.226562 158.648438 109.8125 153.882812 110.707031 152.507812 C 111.339844 151.1875 113.53125 151.222656 114.136719 152.578125 C 114.5 153.273438 114.683594 154.316406 114.683594 155.71875 Z M 114.683594 155.71875 " fill-opacity="1" fill-rule="nonzero"/><path fill="#ffffff" d="M 119.199219 209.261719 C 110.566406 209.261719 103.570312 216.257812 103.570312 224.890625 C 104.285156 245.582031 134.117188 245.578125 134.828125 224.890625 C 134.828125 216.257812 127.832031 209.261719 119.199219 209.261719 Z M 126.738281 230.800781 L 124.644531 230.800781 L 124.644531 235.164062 L 119.890625 235.164062 L 119.890625 230.800781 L 111.949219 230.800781 L 111.667969 227.902344 L 119.890625 214.664062 C 119.808594 214.546875 124.644531 214.667969 124.644531 214.625 C 124.644531 214.625 124.644531 227.136719 124.644531 227.136719 L 126.738281 227.136719 Z M 126.738281 230.800781 " fill-opacity="1" fill-rule="nonzero"/><path fill="#ffffff" d="M 119.890625 220.816406 L 119.890625 227.136719 L 116.195312 227.136719 L 119.597656 221.292969 Z M 119.890625 220.816406 " fill-opacity="1" fill-rule="nonzero"/><path fill="#ffffff" d="M 200.875 219.625 C 187.195312 219.625 176.09375 230.71875 176.09375 244.398438 C 177.402344 277.253906 224.351562 277.257812 225.648438 244.398438 C 225.648438 230.71875 214.558594 219.625 200.875 219.625 Z M 211.101562 255.621094 C 207.007812 263.21875 194.425781 262.863281 190.738281 255.058594 C 189.21875 252.425781 189.078125 248.492188 189.179688 245.289062 C 189.179688 241.929688 189.894531 238.914062 191.335938 236.234375 C 194.40625 230.386719 200.933594 227.3125 207.511719 227.660156 C 207.511719 227.660156 207.511719 233.589844 207.511719 233.589844 L 207.175781 233.589844 C 201.980469 233.554688 197.773438 236.117188 196.898438 241.234375 C 206.890625 233.09375 216.449219 245.582031 211.101562 255.621094 Z M 211.101562 255.621094 " fill-opacity="1" fill-rule="nonzero"/><path fill="#ffffff" d="M 205.007812 249.941406 C 205.136719 257.074219 196.207031 257.40625 196.714844 249.179688 C 196.714844 249.179688 196.714844 246.925781 196.714844 246.925781 C 199.273438 242.402344 205.386719 244.734375 205.007812 249.941406 Z M 205.007812 249.941406 " fill-opacity="1" fill-rule="nonzero"/><g clip-path="url(#e945ddd7a8)"><path fill="#ffffff" d="M 256.09375 251.984375 C 244.269531 251.984375 234.683594 261.566406 234.683594 273.394531 C 235.8125 301.796875 276.386719 301.78125 277.515625 273.394531 C 277.515625 261.566406 267.917969 251.984375 256.09375 251.984375 Z M 263.320312 285.675781 C 260.128906 288.605469 252.125 288.574219 248.925781 285.667969 C 244.800781 282.421875 245.613281 274.976562 250.726562 272.980469 C 246.117188 270.933594 245.667969 264.003906 249.375 261.054688 C 252.421875 258.207031 259.828125 258.226562 262.859375 261.054688 C 266.554688 263.996094 266.121094 270.914062 261.546875 272.980469 C 266.554688 275.007812 267.382812 282.441406 263.320312 285.675781 Z M 263.320312 285.675781 " fill-opacity="1" fill-rule="nonzero"/></g><path fill="#ffffff" d="M 259.382812 279.203125 C 259.605469 284.058594 252.636719 283.984375 252.832031 279.203125 C 252.53125 274.410156 259.695312 274.402344 259.382812 279.203125 Z M 259.382812 279.203125 " fill-opacity="1" fill-rule="nonzero"/><path fill="#ffffff" d="M 258.820312 267.199219 C 259.089844 271.710938 253.167969 271.65625 253.414062 267.199219 C 253.132812 262.839844 259.105469 262.875 258.820312 267.199219 Z M 258.820312 267.199219 " fill-opacity="1" fill-rule="nonzero"/><path fill="#ffffff" d="M 183.054688 278.6875 C 173.214844 278.6875 165.238281 286.664062 165.238281 296.503906 C 166.113281 320.109375 200 320.105469 200.871094 296.503906 C 200.871094 286.664062 192.894531 278.6875 183.054688 278.6875 Z M 191.226562 295.917969 C 191.53125 303.375 185.894531 308.949219 178.472656 308.542969 C 178.472656 308.542969 178.472656 304.199219 178.472656 304.199219 C 182.300781 304.367188 185.414062 302.699219 185.722656 299.164062 C 184.550781 300.214844 183.25 300.738281 181.800781 300.738281 C 175.644531 300.984375 173.304688 293.460938 175.929688 288.644531 C 178.726562 283.074219 187.605469 283.097656 190.152344 288.925781 C 191.175781 290.820312 191.300781 293.621094 191.226562 295.917969 Z M 191.226562 295.917969 " fill-opacity="1" fill-rule="nonzero"/><path fill="#ffffff" d="M 185.808594 293.050781 L 185.808594 295.304688 C 185.292969 296.324219 184.445312 296.832031 183.265625 296.832031 C 179.289062 296.894531 179.375 288.996094 183.007812 288.644531 C 185.257812 288.769531 185.777344 290.699219 185.808594 293.050781 Z M 185.808594 293.050781 " fill-opacity="1" fill-rule="nonzero"/></svg>