<svg xmlns="http://www.w3.org/2000/svg" xmlns:xlink="http://www.w3.org/1999/xlink" width="40" zoomAndPan="magnify" viewBox="0 0 30 30.000001" height="40" preserveAspectRatio="xMidYMid meet" version="1.0"><defs><clipPath id="222869ee02"><path d="M 8.171875 9 L 21.84375 9 L 21.84375 23.226562 L 8.171875 23.226562 Z M 8.171875 9 " clip-rule="nonzero"/></clipPath><clipPath id="a986616c1e"><path d="M 11 5.804688 L 19 5.804688 L 19 12 L 11 12 Z M 11 5.804688 " clip-rule="nonzero"/></clipPath><clipPath id="2c765d2a72"><path d="M 17 12 L 19.894531 12 L 19.894531 15 L 17 15 Z M 17 12 " clip-rule="nonzero"/></clipPath><clipPath id="c5343dbca1"><path d="M 10.097656 19 L 13 19 L 13 21 L 10.097656 21 Z M 10.097656 19 " clip-rule="nonzero"/></clipPath><clipPath id="fdcef5f9ba"><path d="M 13 11.710938 L 16 11.710938 L 16 14 L 13 14 Z M 13 11.710938 " clip-rule="nonzero"/></clipPath><clipPath id="6ba69a013f"><path d="M 18 16 L 19.894531 16 L 19.894531 18 L 18 18 Z M 18 16 " clip-rule="nonzero"/></clipPath><clipPath id="ae5bbf4f32"><path d="M 10.097656 14 L 12 14 L 12 16 L 10.097656 16 Z M 10.097656 14 " clip-rule="nonzero"/></clipPath><clipPath id="76166f3e79"><path d="M 10.097656 12 L 12 12 L 12 15 L 10.097656 15 Z M 10.097656 12 " clip-rule="nonzero"/></clipPath><clipPath id="8b7f190f0a"><path d="M 10.097656 13 L 12 13 L 12 14 L 10.097656 14 Z M 10.097656 13 " clip-rule="nonzero"/></clipPath><clipPath id="b27b2add47"><path d="M 10.097656 16 L 13 16 L 13 18 L 10.097656 18 Z M 10.097656 16 " clip-rule="nonzero"/></clipPath><clipPath id="20c2c3860f"><path d="M 17 18 L 19.894531 18 L 19.894531 21 L 17 21 Z M 17 18 " clip-rule="nonzero"/></clipPath></defs><g clip-path="url(#222869ee02)"><path fill="#ffffff" d="M 17.574219 23.226562 L 12.425781 23.226562 C 10.824219 23.226562 9.382812 22.335938 8.664062 20.90625 C 8.296875 20.175781 8.171875 19.316406 8.304688 18.429688 L 9.589844 9.667969 L 20.410156 9.667969 L 21.695312 18.429688 C 21.828125 19.316406 21.703125 20.175781 21.335938 20.90625 C 20.617188 22.335938 19.175781 23.226562 17.574219 23.226562 Z M 10.273438 10.457031 L 9.085938 18.542969 C 8.980469 19.273438 9.078125 19.964844 9.371094 20.550781 C 9.660156 21.132812 10.078125 21.589844 10.628906 21.929688 C 11.179688 22.269531 11.777344 22.4375 12.425781 22.4375 L 17.574219 22.4375 C 18.222656 22.4375 18.820312 22.269531 19.371094 21.929688 C 19.921875 21.589844 20.339844 21.132812 20.628906 20.550781 C 20.921875 19.964844 21.019531 19.273438 20.914062 18.542969 L 19.726562 10.457031 Z M 10.273438 10.457031 " fill-opacity="1" fill-rule="nonzero"/></g><g clip-path="url(#a986616c1e)"><path fill="#ffffff" d="M 17.914062 11.90625 C 17.804688 11.90625 17.710938 11.867188 17.632812 11.792969 C 17.554688 11.714844 17.515625 11.621094 17.515625 11.511719 L 17.515625 9.113281 C 17.515625 7.726562 16.386719 6.597656 15 6.597656 C 13.609375 6.597656 12.480469 7.726562 12.480469 9.113281 L 12.480469 11.511719 C 12.476562 11.617188 12.4375 11.707031 12.359375 11.777344 C 12.28125 11.851562 12.191406 11.886719 12.085938 11.886719 C 11.980469 11.886719 11.890625 11.851562 11.816406 11.777344 C 11.738281 11.707031 11.699219 11.617188 11.691406 11.511719 L 11.691406 9.113281 C 11.691406 7.289062 13.175781 5.804688 15 5.804688 C 16.824219 5.804688 18.308594 7.289062 18.308594 9.113281 L 18.308594 11.511719 C 18.308594 11.621094 18.269531 11.714844 18.191406 11.792969 C 18.113281 11.867188 18.019531 11.90625 17.914062 11.90625 Z M 17.914062 11.90625 " fill-opacity="1" fill-rule="nonzero"/></g><path fill="#ffffff" d="M 13.125 14.105469 C 12.535156 14.105469 12.054688 14.582031 12.054688 15.171875 C 12.113281 16.589844 14.136719 16.589844 14.191406 15.171875 C 14.191406 14.582031 13.714844 14.105469 13.125 14.105469 Z M 13.285156 15.875 L 12.957031 15.875 L 12.957031 14.835938 L 12.636719 14.929688 L 12.636719 14.683594 L 13.253906 14.472656 L 13.285156 14.472656 Z M 13.285156 15.875 " fill-opacity="1" fill-rule="nonzero"/><g clip-path="url(#2c765d2a72)"><path fill="#ffffff" d="M 18.359375 12.152344 C 17.714844 12.152344 17.191406 12.671875 17.191406 13.316406 C 17.253906 14.863281 19.460938 14.859375 19.523438 13.316406 C 19.523438 12.671875 19 12.152344 18.359375 12.152344 Z M 18.910156 14.09375 C 18.910156 14.09375 18.691406 14.09375 18.453125 14.09375 C 18.164062 14.09375 17.839844 14.09375 17.839844 14.09375 L 17.839844 13.863281 C 17.976562 13.691406 18.523438 13.222656 18.515625 13.015625 C 18.515625 12.707031 18.144531 12.773438 18.164062 13.054688 C 18.164062 13.054688 17.808594 13.054688 17.808594 13.054688 C 17.808594 12.867188 17.910156 12.695312 18.074219 12.605469 C 18.390625 12.445312 18.894531 12.566406 18.871094 12.984375 C 18.855469 13.25 18.703125 13.378906 18.503906 13.589844 C 18.503906 13.589844 18.304688 13.820312 18.304688 13.820312 L 18.910156 13.820312 Z M 18.910156 14.09375 " fill-opacity="1" fill-rule="nonzero"/></g><path fill="#ffffff" d="M 17.566406 15.171875 C 17.132812 15.171875 16.777344 15.527344 16.777344 15.964844 C 16.8125 17.007812 18.324219 17.007812 18.359375 15.964844 C 18.359375 15.527344 18.003906 15.171875 17.566406 15.171875 Z M 17.839844 16.414062 C 17.644531 16.570312 17.183594 16.507812 17.191406 16.195312 C 17.191406 16.195312 17.433594 16.195312 17.433594 16.195312 C 17.429688 16.304688 17.597656 16.347656 17.667969 16.277344 C 17.722656 16.230469 17.710938 16.109375 17.664062 16.074219 C 17.621094 16.03125 17.503906 16.042969 17.441406 16.042969 C 17.441406 16.042969 17.441406 15.863281 17.441406 15.863281 C 17.546875 15.863281 17.695312 15.882812 17.6875 15.730469 C 17.703125 15.589844 17.457031 15.574219 17.445312 15.710938 C 17.445312 15.710938 17.207031 15.710938 17.207031 15.710938 C 17.207031 15.597656 17.277344 15.511719 17.378906 15.464844 C 17.511719 15.402344 17.730469 15.421875 17.828125 15.507812 C 17.980469 15.621094 17.957031 15.878906 17.769531 15.949219 C 17.972656 16.007812 18.003906 16.292969 17.839844 16.414062 Z M 17.839844 16.414062 " fill-opacity="1" fill-rule="nonzero"/><g clip-path="url(#c5343dbca1)"><path fill="#ffffff" d="M 11.71875 19.242188 C 11.273438 19.242188 10.910156 19.605469 10.910156 20.054688 C 10.945312 21.125 12.492188 21.125 12.53125 20.054688 C 12.53125 19.605469 12.167969 19.242188 11.71875 19.242188 Z M 12.046875 20.421875 C 11.898438 20.707031 11.34375 20.621094 11.347656 20.277344 C 11.347656 20.277344 11.59375 20.277344 11.59375 20.277344 C 11.613281 20.46875 11.871094 20.441406 11.84375 20.21875 C 11.863281 20.046875 11.65625 19.996094 11.566406 20.105469 C 11.566406 20.105469 11.367188 20.058594 11.367188 20.058594 L 11.433594 19.511719 L 12.054688 19.511719 L 12.054688 19.703125 L 11.632812 19.703125 L 11.609375 19.917969 C 11.953125 19.75 12.207031 20.109375 12.046875 20.421875 Z M 12.046875 20.421875 " fill-opacity="1" fill-rule="nonzero"/></g><g clip-path="url(#fdcef5f9ba)"><path fill="#ffffff" d="M 14.703125 11.710938 C 14.128906 11.710938 13.664062 12.175781 13.664062 12.75 C 13.71875 14.128906 15.691406 14.128906 15.742188 12.75 C 15.742188 12.175781 15.277344 11.710938 14.703125 11.710938 Z M 15.195312 12.234375 L 14.683594 13.433594 L 14.351562 13.433594 L 14.863281 12.3125 L 14.210938 12.3125 L 14.210938 12.066406 L 15.195312 12.066406 Z M 15.195312 12.234375 " fill-opacity="1" fill-rule="nonzero"/></g><path fill="#ffffff" d="M 16.960938 20.839844 L 17.351562 20.839844 L 17.351562 21.171875 L 16.960938 21.171875 L 16.960938 21.621094 L 16.597656 21.621094 L 16.597656 21.171875 L 16.203125 21.171875 L 16.203125 20.839844 L 16.597656 20.839844 L 16.597656 20.402344 L 16.960938 20.402344 Z M 16.960938 20.839844 " fill-opacity="1" fill-rule="nonzero"/><path fill="#ffffff" d="M 12.476562 18.179688 L 13.769531 18.179688 L 13.769531 18.738281 L 12.476562 18.738281 Z M 12.476562 18.179688 " fill-opacity="1" fill-rule="nonzero"/><path fill="#ffffff" d="M 15.824219 15.132812 L 14.757812 15.132812 L 14.757812 14.835938 L 15.824219 14.835938 Z M 15.824219 15.640625 L 14.757812 15.640625 L 14.757812 15.339844 L 15.824219 15.339844 Z M 15.824219 15.640625 " fill-opacity="1" fill-rule="nonzero"/><g clip-path="url(#6ba69a013f)"><path fill="#ffffff" d="M 19.480469 17.183594 L 18.734375 17.183594 L 18.734375 17.007812 L 19.480469 17.007812 Z M 18.972656 16.808594 C 18.96875 16.652344 19.246094 16.652344 19.242188 16.808594 C 19.246094 16.964844 18.96875 16.964844 18.972656 16.808594 Z M 18.972656 17.386719 C 18.96875 17.230469 19.246094 17.230469 19.242188 17.386719 C 19.246094 17.542969 18.96875 17.542969 18.972656 17.386719 Z M 18.972656 17.386719 " fill-opacity="1" fill-rule="nonzero"/></g><g clip-path="url(#ae5bbf4f32)"><path fill="#ffffff" d="M 10.695312 15.386719 L 10.90625 15.171875 L 10.695312 14.957031 L 10.832031 14.828125 L 11.035156 15.039062 L 11.242188 14.828125 L 11.378906 14.957031 L 11.167969 15.171875 L 11.378906 15.386719 L 11.242188 15.515625 L 11.035156 15.308594 L 10.832031 15.515625 Z M 10.695312 15.386719 " fill-opacity="1" fill-rule="nonzero"/></g><g clip-path="url(#76166f3e79)"><path fill="#ffffff" d="M 10.914062 12.652344 C 10.46875 12.652344 10.105469 13.015625 10.105469 13.460938 C 10.144531 14.527344 11.683594 14.527344 11.71875 13.460938 C 11.71875 13.015625 11.359375 12.652344 10.914062 12.652344 Z M 11.28125 13.558594 C 11.3125 14.160156 10.515625 14.15625 10.542969 13.558594 C 10.53125 13.261719 10.550781 12.917969 10.914062 12.914062 C 11.277344 12.917969 11.296875 13.265625 11.28125 13.558594 Z M 11.28125 13.558594 " fill-opacity="1" fill-rule="nonzero"/></g><g clip-path="url(#8b7f190f0a)"><path fill="#ffffff" d="M 11.035156 13.332031 C 11.03125 13.429688 11.054688 13.6875 11.007812 13.761719 C 10.972656 13.835938 10.855469 13.832031 10.820312 13.761719 C 10.800781 13.726562 10.789062 13.667969 10.789062 13.585938 C 10.792969 13.492188 10.773438 13.234375 10.820312 13.15625 C 10.855469 13.085938 10.972656 13.089844 11.007812 13.160156 C 11.027344 13.199219 11.035156 13.257812 11.035156 13.332031 Z M 11.035156 13.332031 " fill-opacity="1" fill-rule="nonzero"/></g><g clip-path="url(#b27b2add47)"><path fill="#ffffff" d="M 11.28125 16.246094 C 10.8125 16.246094 10.433594 16.628906 10.433594 17.097656 C 10.472656 18.222656 12.09375 18.222656 12.132812 17.097656 C 12.132812 16.628906 11.753906 16.246094 11.28125 16.246094 Z M 11.691406 17.417969 L 11.578125 17.417969 L 11.578125 17.65625 L 11.320312 17.65625 L 11.320312 17.417969 L 10.886719 17.417969 L 10.871094 17.261719 L 11.320312 16.539062 C 11.316406 16.535156 11.578125 16.539062 11.578125 16.539062 C 11.578125 16.539062 11.578125 17.21875 11.578125 17.21875 L 11.691406 17.21875 Z M 11.691406 17.417969 " fill-opacity="1" fill-rule="nonzero"/></g><path fill="#ffffff" d="M 11.320312 16.875 L 11.320312 17.21875 L 11.121094 17.21875 L 11.304688 16.902344 Z M 11.320312 16.875 " fill-opacity="1" fill-rule="nonzero"/><path fill="#ffffff" d="M 15.726562 16.8125 C 14.984375 16.8125 14.378906 17.414062 14.378906 18.160156 C 14.449219 19.945312 17.003906 19.945312 17.078125 18.160156 C 17.078125 17.414062 16.472656 16.8125 15.726562 16.8125 Z M 16.285156 18.769531 C 16.0625 19.183594 15.375 19.164062 15.175781 18.738281 C 15.09375 18.597656 15.085938 18.382812 15.089844 18.207031 C 15.089844 18.023438 15.128906 17.859375 15.207031 17.714844 C 15.375 17.394531 15.730469 17.230469 16.089844 17.246094 C 16.089844 17.246094 16.089844 17.570312 16.089844 17.570312 L 16.070312 17.570312 C 15.789062 17.570312 15.558594 17.707031 15.511719 17.988281 C 16.054688 17.542969 16.574219 18.222656 16.285156 18.769531 Z M 16.285156 18.769531 " fill-opacity="1" fill-rule="nonzero"/><path fill="#ffffff" d="M 15.953125 18.460938 C 15.960938 18.847656 15.472656 18.867188 15.5 18.417969 C 15.5 18.417969 15.5 18.296875 15.5 18.296875 C 15.640625 18.050781 15.972656 18.175781 15.953125 18.460938 Z M 15.953125 18.460938 " fill-opacity="1" fill-rule="nonzero"/><g clip-path="url(#20c2c3860f)"><path fill="#ffffff" d="M 18.734375 18.570312 C 18.089844 18.570312 17.566406 19.09375 17.566406 19.738281 C 17.628906 21.28125 19.835938 21.28125 19.898438 19.738281 C 19.898438 19.09375 19.375 18.570312 18.734375 18.570312 Z M 19.125 20.40625 C 18.953125 20.566406 18.515625 20.5625 18.34375 20.40625 C 18.117188 20.226562 18.164062 19.824219 18.441406 19.714844 C 18.191406 19.601562 18.164062 19.226562 18.367188 19.066406 C 18.535156 18.910156 18.9375 18.910156 19.101562 19.066406 C 19.300781 19.226562 19.277344 19.601562 19.03125 19.714844 C 19.300781 19.824219 19.347656 20.230469 19.125 20.40625 Z M 19.125 20.40625 " fill-opacity="1" fill-rule="nonzero"/></g><path fill="#ffffff" d="M 18.914062 20.054688 C 18.925781 20.316406 18.542969 20.3125 18.554688 20.054688 C 18.539062 19.792969 18.929688 19.792969 18.914062 20.054688 Z M 18.914062 20.054688 " fill-opacity="1" fill-rule="nonzero"/><path fill="#ffffff" d="M 18.882812 19.398438 C 18.894531 19.644531 18.574219 19.640625 18.585938 19.398438 C 18.570312 19.164062 18.898438 19.164062 18.882812 19.398438 Z M 18.882812 19.398438 " fill-opacity="1" fill-rule="nonzero"/><path fill="#ffffff" d="M 14.757812 20.023438 C 14.222656 20.023438 13.789062 20.460938 13.789062 20.996094 C 13.835938 22.28125 15.679688 22.277344 15.726562 20.996094 C 15.726562 20.460938 15.292969 20.023438 14.757812 20.023438 Z M 15.203125 20.960938 C 15.21875 21.367188 14.914062 21.671875 14.507812 21.648438 C 14.507812 21.648438 14.507812 21.414062 14.507812 21.414062 C 14.71875 21.421875 14.886719 21.332031 14.902344 21.140625 C 14.839844 21.195312 14.769531 21.226562 14.691406 21.226562 C 14.355469 21.238281 14.226562 20.828125 14.371094 20.566406 C 14.523438 20.265625 15.003906 20.265625 15.144531 20.582031 C 15.199219 20.683594 15.207031 20.835938 15.203125 20.960938 Z M 15.203125 20.960938 " fill-opacity="1" fill-rule="nonzero"/><path fill="#ffffff" d="M 14.90625 20.808594 L 14.90625 20.929688 C 14.878906 20.984375 14.832031 21.011719 14.769531 21.011719 C 14.554688 21.015625 14.558594 20.585938 14.753906 20.566406 C 14.878906 20.574219 14.90625 20.679688 14.90625 20.808594 Z M 14.90625 20.808594 " fill-opacity="1" fill-rule="nonzero"/></svg>