<?xml version="1.0" encoding="UTF-8" standalone="no"?>
<svg
   width="64"
   zoomAndPan="magnify"
   viewBox="0 0 48 47.999998"
   height="64"
   preserveAspectRatio="xMidYMid"
   version="1.0"
   id="svg28"
   sodipodi:docname="appiconfg.svg"
   inkscape:version="1.3.2 (091e20e, 2023-11-25, custom)"
   xmlns:inkscape="http://www.inkscape.org/namespaces/inkscape"
   xmlns:sodipodi="http://sodipodi.sourceforge.net/DTD/sodipodi-0.dtd"
   xmlns="http://www.w3.org/2000/svg"
   xmlns:svg="http://www.w3.org/2000/svg">
  <sodipodi:namedview
     id="namedview28"
     pagecolor="#505050"
     bordercolor="#eeeeee"
     borderopacity="1"
     inkscape:showpageshadow="0"
     inkscape:pageopacity="0"
     inkscape:pagecheckerboard="0"
     inkscape:deskcolor="#d1d1d1"
     inkscape:zoom="2.8793388"
     inkscape:cx="21.185419"
     inkscape:cy="74.49627"
     inkscape:window-width="1366"
     inkscape:window-height="705"
     inkscape:window-x="-8"
     inkscape:window-y="-8"
     inkscape:window-maximized="1"
     inkscape:current-layer="svg28" />
  <defs
     id="defs5">
    <clipPath
       id="2646a1cad5">
      <path
         d="M 63,88 H 312 V 337.5 H 63 Z m 0,0"
         clip-rule="nonzero"
         id="path1" />
    </clipPath>
    <clipPath
       id="37c0067042">
      <path
         d="M 126,17.429688 H 249 V 130 H 126 Z m 0,0"
         clip-rule="nonzero"
         id="path2" />
    </clipPath>
    <clipPath
       id="c46f729b20">
      <path
         d="m 162,125.91797 h 40 V 164 h -40 z m 0,0"
         clip-rule="nonzero"
         id="path3" />
    </clipPath>
    <clipPath
       id="302511bb3f">
      <path
         d="M 97.429688,143 H 128 v 30 H 97.429688 Z m 0,0"
         clip-rule="nonzero"
         id="path4" />
    </clipPath>
    <clipPath
       id="e945ddd7a8">
      <path
         d="m 234,251 h 43.46875 v 44 H 234 Z m 0,0"
         clip-rule="nonzero"
         id="path5" />
    </clipPath>
  </defs>
  <g
     id="g28"
     style="image-rendering:auto"
     transform="matrix(0.14996705,0,0,0.14996705,-4.1180486,-2.6138796)">
    <g
       clip-path="url(#2646a1cad5)"
       id="g6">
      <path
         fill="#ffffff"
         d="m 234.82812,337.51562 h -94.66015 c -29.40625,0 -55.867189,-16.33203 -69.082032,-42.6289 -6.738282,-13.44531 -9.035157,-29.1875 -6.628907,-45.52344 L 88.117188,88.378906 H 286.875 l 23.66016,160.984374 c 2.40234,16.33984 0.10546,32.08203 -6.64454,45.52344 -13.19531,26.29687 -39.66015,42.6289 -69.0625,42.6289 z M 100.65625,102.90234 78.820312,251.47266 c -1.957031,13.37109 -0.140624,26.13281 5.253907,36.90234 1.292969,2.59375 2.757812,5.08594 4.394531,7.47656 1.640625,2.39063 3.433594,4.65625 5.386719,6.79688 1.957031,2.14062 4.046875,4.13672 6.277341,5.98437 2.23438,1.84766 4.58203,3.53516 7.04688,5.0586 2.46875,1.51953 5.02734,2.86328 7.67969,4.03125 2.65234,1.16406 5.375,2.14062 8.16406,2.92968 2.78906,0.78516 5.61718,1.375 8.48828,1.76953 2.87109,0.39063 5.75781,0.58204 8.65625,0.57422 h 94.66015 c 2.89844,0.008 5.78125,-0.18359 8.65235,-0.57422 2.87109,-0.39453 5.70312,-0.98437 8.49219,-1.76953 2.78906,-0.78906 5.50781,-1.76562 8.16015,-2.92968 2.65235,-1.16797 5.21485,-2.51172 7.67969,-4.03125 2.46484,-1.52344 4.8125,-3.20704 7.04687,-5.0586 2.23047,-1.84765 4.32032,-3.84375 6.27735,-5.98437 1.95312,-2.14063 3.74609,-4.40625 5.38672,-6.79688 1.63672,-2.39062 3.10156,-4.88281 4.39062,-7.47656 5.40625,-10.76563 7.22266,-23.52344 5.25781,-36.90234 L 274.33203,102.90234 Z m 0,0"
         fill-opacity="1"
         fill-rule="nonzero"
         id="path6" />
    </g>
    <g
       clip-path="url(#37c0067042)"
       id="g7">
      <path
         fill="#ffffff"
         d="m 241.01562,129.53516 c -0.48046,0 -0.95312,-0.0469 -1.42187,-0.14063 -0.46484,-0.0937 -0.92188,-0.23047 -1.36328,-0.41406 -0.44141,-0.1836 -0.85938,-0.40625 -1.25781,-0.67188 -0.39454,-0.26562 -0.76172,-0.5664 -1.10157,-0.90625 -0.33593,-0.33593 -0.63672,-0.70312 -0.90234,-1.10156 -0.26563,-0.39453 -0.48828,-0.8164 -0.67188,-1.25781 -0.18359,-0.44141 -0.32031,-0.89453 -0.41406,-1.36328 -0.0937,-0.46875 -0.14062,-0.94141 -0.14062,-1.41797 V 78.207031 c 0,-25.507812 -20.75,-46.257812 -46.25782,-46.257812 -25.50781,0 -46.24609,20.75 -46.24609,46.257812 v 44.074219 c -0.0234,0.46094 -0.0937,0.91406 -0.20312,1.35938 -0.10938,0.44921 -0.26172,0.88281 -0.45704,1.30078 -0.19531,0.41797 -0.42578,0.8125 -0.69531,1.1875 -0.26562,0.375 -0.57031,0.71875 -0.90234,1.03906 -0.33594,0.31641 -0.69531,0.59766 -1.08594,0.84765 -0.38672,0.2461 -0.79687,0.45704 -1.22266,0.625 -0.42968,0.17188 -0.87109,0.30079 -1.32421,0.38672 -0.45313,0.0898 -0.91016,0.13282 -1.3711,0.13282 -0.46094,0 -0.91406,-0.043 -1.36719,-0.13282 -0.45312,-0.0859 -0.89453,-0.21484 -1.32421,-0.38672 -0.42579,-0.16796 -0.83594,-0.3789 -1.22266,-0.625 -0.39063,-0.24999 -0.75,-0.53124 -1.08594,-0.84765 -0.33203,-0.32031 -0.63672,-0.66406 -0.90625,-1.03906 -0.26562,-0.375 -0.5,-0.76953 -0.6914,-1.1875 -0.19532,-0.41797 -0.34766,-0.85157 -0.45703,-1.30078 -0.11329,-0.44532 -0.17969,-0.89844 -0.20313,-1.35938 V 78.207031 c 0,-33.507812 27.26562,-60.777343 60.77734,-60.777343 33.50782,0 60.77735,27.269531 60.77735,60.777343 v 44.074219 c 0,0.47656 -0.0469,0.94531 -0.14063,1.41406 -0.0937,0.46485 -0.23437,0.91797 -0.41797,1.35938 -0.18359,0.4375 -0.40625,0.85547 -0.67187,1.2539 -0.26172,0.39454 -0.56641,0.76172 -0.90235,1.09766 -0.33593,0.33594 -0.70312,0.63672 -1.09765,0.90234 -0.39453,0.26172 -0.8125,0.48828 -1.25391,0.66797 -0.4414,0.1836 -0.89453,0.32031 -1.35937,0.41406 -0.46875,0.0937 -0.9375,0.14063 -1.41407,0.14454 z m 0,0"
         fill-opacity="1"
         fill-rule="nonzero"
         id="path7" />
    </g>
    <path
       fill="#ffffff"
       d="m 153.02734,169.90625 c -10.83593,0 -19.63281,8.78516 -19.63281,19.625 1.03906,26.02734 38.23047,26.03125 39.26172,0 0,-10.83984 -8.78906,-19.625 -19.62891,-19.625 z m 2.9375,32.52734 h -5.99218 v -19.07031 l -5.875,1.71875 v -4.53516 l 11.3125,-3.90625 h 0.55468 z m 0,0"
       fill-opacity="1"
       fill-rule="nonzero"
       id="path8" />
    <path
       fill="#ffffff"
       d="m 249.19922,134.00781 c -11.82422,0 -21.41016,9.58594 -21.41016,21.41016 1.12891,28.40625 41.70313,28.38672 42.83203,0 0,-11.82422 -9.59375,-21.41016 -21.42187,-21.41016 z m 10.11328,35.67969 c 0,0 -3.97656,0 -8.34766,0 -5.34765,0 -11.28515,0 -11.28515,0 v -4.25391 c 2.53515,-3.08593 12.59375,-11.71484 12.38672,-15.55078 0.0586,-5.65234 -6.77344,-4.41797 -6.4336,0.71094 0,0 -6.53125,0 -6.53125,0 -0.0273,-3.41016 1.85156,-6.60938 4.87891,-8.20703 5.83203,-2.97656 15.04297,-0.74219 14.63672,6.91406 -0.25,4.93359 -3.05469,7.25 -6.7461,11.16797 0,0 -3.63672,4.19922 -3.63672,4.19922 h 11.07813 z m 0,0"
       fill-opacity="1"
       fill-rule="nonzero"
       id="path9" />
    <path
       fill="#ffffff"
       d="m 234.68359,189.53125 c -8.01953,0 -14.51953,6.5 -14.51953,14.51953 0.66406,19.22266 28.37891,19.21875 29.04297,0 0,-8.01953 -6.50391,-14.51953 -14.52344,-14.51953 z m 4.96875,22.80078 c -3.55078,2.90625 -12.04297,1.75781 -11.90234,-4.03906 0,0 4.44141,0 4.44141,0 -0.0391,2.07031 3.00781,2.82031 4.3164,1.51562 1.02735,-0.8164 0.82813,-3.04687 -0.0234,-3.70312 -0.82421,-0.82813 -3.0039,-0.56641 -4.14453,-0.60547 0,0 0,-3.28906 0,-3.28906 1.98047,0.0273 4.6836,0.33984 4.5625,-2.42188 0.23047,-2.6289 -4.28515,-2.89453 -4.4375,-0.35547 0,0 -4.41406,0 -4.41406,0 -0.0117,-2.07031 1.26563,-3.69531 3.16406,-4.52734 2.4375,-1.15234 6.44922,-0.76563 8.28125,0.78906 2.76172,2.07813 2.3125,6.78125 -1.125,8.10156 3.76953,1.07032 4.32032,6.34766 1.28125,8.53516 z m 0,0"
       fill-opacity="1"
       fill-rule="nonzero"
       id="path10" />
    <path
       fill="#ffffff"
       d="m 127.23047,264.30469 c -8.22656,0 -14.89844,6.67187 -14.89844,14.90234 0.67969,19.72656 29.12109,19.71875 29.80078,0 0,-8.23047 -6.67187,-14.90234 -14.90234,-14.90234 z m 6,21.65625 c -2.70313,5.28515 -12.88281,3.66015 -12.83984,-2.66016 0,0 4.55078,0 4.55078,0 0.30468,3.50781 5.03125,3.03516 4.59765,-1.04687 0.35156,-3.19922 -3.49218,-4.07032 -5.16406,-2.10938 0,0 -3.60547,-0.84766 -3.60547,-0.84766 l 1.19922,-10.01562 h 11.44531 v 3.49609 h -7.76172 l -0.4414,3.91797 c 6.28125,-3.05469 10.95312,3.57422 8.01953,9.26563 z m 0,0"
       fill-opacity="1"
       fill-rule="nonzero"
       id="path11" />
    <g
       clip-path="url(#c46f729b20)"
       id="g12">
      <path
         fill="#ffffff"
         d="m 182.05078,125.91797 c -10.54297,0 -19.08984,8.54687 -19.08984,19.09375 0.97656,25.30859 37.20703,25.30469 38.18359,0 -0.004,-10.54688 -8.54687,-19.09375 -19.09375,-19.09375 z m 9.04297,9.65234 -9.375,21.98828 h -6.14063 l 9.39063,-20.60937 h -11.95703 v -4.48047 h 18.08203 z m 0,0"
         fill-opacity="1"
         fill-rule="nonzero"
         id="path12" />
    </g>
    <path
       fill="#ffffff"
       d="m 223.50391,293.66016 h 7.20703 v 6.10937 h -7.20703 v 8.26563 h -6.66016 v -8.26563 h -7.23047 v -6.10937 h 7.23047 v -8.03125 h 6.66016 z m 0,0"
       fill-opacity="1"
       fill-rule="nonzero"
       id="path13" />
    <path
       fill="#ffffff"
       d="m 141.15625,244.80469 h 23.73828 v 10.26953 h -23.73828 z m 0,0"
       fill-opacity="1"
       fill-rule="nonzero"
       id="path14" />
    <path
       fill="#ffffff"
       d="M 202.63672,188.82812 H 183.0625 v -5.49609 h 19.57422 z m 0,9.27735 H 183.0625 v -5.4961 h 19.57422 z m 0,0"
       fill-opacity="1"
       fill-rule="nonzero"
       id="path15" />
    <path
       fill="#ffffff"
       d="m 269.85156,226.44922 h -13.73437 v -3.20703 h 13.73437 z m -9.32812,-6.89063 c -0.0859,-2.875 4.98047,-2.875 4.89453,0 0.0859,2.875 -4.98047,2.875 -4.89453,0 z m 0,10.66797 c -0.0859,-2.875 4.98047,-2.875 4.89453,0 0.0859,2.875 -4.98047,2.875 -4.89453,0 z m 0,0"
       fill-opacity="1"
       fill-rule="nonzero"
       id="path16" />
    <path
       fill="#ffffff"
       d="m 108.40625,193.48437 3.86328,-3.9414 -3.86328,-3.95313 2.49219,-2.36718 3.78515,3.86328 3.78516,-3.86328 2.49219,2.36718 -3.875,3.95313 3.875,3.9414 -2.49219,2.36329 -3.78516,-3.85157 -3.78515,3.85157 z m 0,0"
       fill-opacity="1"
       fill-rule="nonzero"
       id="path17" />
    <g
       clip-path="url(#302511bb3f)"
       id="g18">
      <path
         fill="#ffffff"
         d="m 112.40625,143.24219 c -8.1875,0 -14.824219,6.64453 -14.824219,14.83203 0.675781,19.625 28.976559,19.62109 29.648439,0 0,-8.1875 -6.63672,-14.83203 -14.82422,-14.83203 z m 6.79297,16.60937 c 0.54297,11.0625 -14.125,11.03125 -13.58594,0 -0.25,-5.39844 0.10156,-11.78515 6.78516,-11.78906 6.66406,0.0117 7.05859,6.39453 6.80078,11.78906 z m 0,0"
         fill-opacity="1"
         fill-rule="nonzero"
         id="path18" />
    </g>
    <path
       fill="#ffffff"
       d="m 114.68359,155.71875 c -0.0937,1.78906 0.32422,6.53516 -0.55859,7.90234 -0.65625,1.33203 -2.8125,1.30078 -3.4375,-0.0312 -0.37109,-0.66797 -0.55078,-1.73437 -0.55078,-3.1875 0.0898,-1.7539 -0.32422,-6.51953 0.57031,-7.89453 0.63281,-1.32031 2.82422,-1.28515 3.42969,0.0703 0.36328,0.69532 0.54687,1.73829 0.54687,3.14063 z m 0,0"
       fill-opacity="1"
       fill-rule="nonzero"
       id="path19" />
    <path
       fill="#ffffff"
       d="m 119.19922,209.26172 c -8.63281,0 -15.62891,6.99609 -15.62891,15.6289 0.71485,20.69141 30.54688,20.6875 31.25781,0 0,-8.63281 -6.99609,-15.6289 -15.6289,-15.6289 z m 7.53906,21.53906 h -2.09375 v 4.36328 h -4.7539 v -4.36328 h -7.94141 l -0.28125,-2.89844 8.22266,-13.23828 c -0.082,-0.11719 4.7539,0.004 4.7539,-0.0391 0,0 0,12.51172 0,12.51172 h 2.09375 z m 0,0"
       fill-opacity="1"
       fill-rule="nonzero"
       id="path20" />
    <path
       fill="#ffffff"
       d="m 119.89063,220.81641 v 6.32031 h -3.69532 l 3.40235,-5.84375 z m 0,0"
       fill-opacity="1"
       fill-rule="nonzero"
       id="path21" />
    <path
       fill="#ffffff"
       d="m 200.875,219.625 c -13.67969,0 -24.78125,11.09375 -24.78125,24.77344 1.30859,32.85547 48.25781,32.85937 49.55469,0 0,-13.67969 -11.08985,-24.77344 -24.77344,-24.77344 z m 10.22656,35.99609 c -4.09375,7.59766 -16.67578,7.24219 -20.36328,-0.5625 -1.51953,-2.63281 -1.66016,-6.5664 -1.55859,-9.76953 0,-3.35937 0.71484,-6.375 2.15625,-9.05469 3.07031,-5.84765 9.59765,-8.92187 16.17578,-8.57421 0,0 0,5.92968 0,5.92968 h -0.33594 c -5.19531,-0.0352 -9.40234,2.52735 -10.27734,7.64453 9.99218,-8.14062 19.55078,4.34766 14.20312,14.38672 z m 0,0"
       fill-opacity="1"
       fill-rule="nonzero"
       id="path22" />
    <path
       fill="#ffffff"
       d="m 205.00781,249.94141 c 0.12891,7.13281 -8.80078,7.46484 -8.29297,-0.76172 0,0 0,-2.25391 0,-2.25391 2.5586,-4.52344 8.67188,-2.19141 8.29297,3.01563 z m 0,0"
       fill-opacity="1"
       fill-rule="nonzero"
       id="path23" />
    <g
       clip-path="url(#e945ddd7a8)"
       id="g24">
      <path
         fill="#ffffff"
         d="m 256.09375,251.98437 c -11.82422,0 -21.41016,9.58204 -21.41016,21.41016 1.12891,28.40234 41.70313,28.38672 42.83203,0 0,-11.82812 -9.59765,-21.41016 -21.42187,-21.41016 z m 7.22656,33.69141 c -3.1914,2.92969 -11.19531,2.89844 -14.39453,-0.008 -4.125,-3.2461 -3.3125,-10.69141 1.80078,-12.6875 -4.60937,-2.04688 -5.05859,-8.97656 -1.35156,-11.92578 3.04687,-2.84766 10.45312,-2.82813 13.48437,0 3.69532,2.9414 3.26172,9.85937 -1.3125,11.92578 5.00782,2.02734 5.83594,9.46094 1.77344,12.69531 z m 0,0"
         fill-opacity="1"
         fill-rule="nonzero"
         id="path24" />
    </g>
    <path
       fill="#ffffff"
       d="m 259.38281,279.20312 c 0.22266,4.85547 -6.74609,4.78125 -6.55078,0 -0.30078,-4.79296 6.86328,-4.80078 6.55078,0 z m 0,0"
       fill-opacity="1"
       fill-rule="nonzero"
       id="path25" />
    <path
       fill="#ffffff"
       d="m 258.82031,267.19922 c 0.26953,4.51172 -5.65234,4.45703 -5.40625,0 -0.28125,-4.35938 5.69141,-4.32422 5.40625,0 z m 0,0"
       fill-opacity="1"
       fill-rule="nonzero"
       id="path26" />
    <path
       fill="#ffffff"
       d="m 183.05469,278.6875 c -9.83985,0 -17.81641,7.97656 -17.81641,17.81641 0.875,23.60546 34.76172,23.60156 35.63281,0 0,-9.83985 -7.97656,-17.81641 -17.8164,-17.81641 z m 8.17187,17.23047 c 0.30469,7.45703 -5.33203,13.03125 -12.7539,12.625 0,0 0,-4.34375 0,-4.34375 3.82812,0.16797 6.9414,-1.5 7.25,-5.03516 -1.17188,1.05078 -2.47266,1.57422 -3.92188,1.57422 -6.15625,0.24609 -8.49609,-7.27734 -5.87109,-12.09375 2.79687,-5.57031 11.67578,-5.54687 14.22265,0.28125 1.02344,1.89453 1.14844,4.69531 1.07422,6.99219 z m 0,0"
       fill-opacity="1"
       fill-rule="nonzero"
       id="path27" />
    <path
       fill="#ffffff"
       d="m 185.80859,293.05078 v 2.25391 c -0.51562,1.01953 -1.36328,1.52734 -2.54297,1.52734 -3.97656,0.0625 -3.89062,-7.83594 -0.25781,-8.1875 2.25,0.125 2.76953,2.05469 2.80078,4.40625 z m 0,0"
       fill-opacity="1"
       fill-rule="nonzero"
       id="path28" />
  </g>
</svg>
